<svg width="40" height="40" viewBox="0 0 40 40" fill="none" xmlns="http://www.w3.org/2000/svg">
<path fill-rule="evenodd" clip-rule="evenodd" d="M0 4C0 1.79086 1.79086 0 4 0H16C18.2091 0 20 1.79086 20 4V16C20 16.5782 19.8773 17.1277 19.6566 17.624L19.6641 17.6381C20.2038 18.6563 21.0537 19.4763 22.0906 19.9791L22.6301 20.2407C23.0574 20.085 23.5188 20 24 20H36C38.2091 20 40 21.7909 40 24V36C40 38.2091 38.2091 40 36 40H24C21.7909 40 20 38.2091 20 36V24C20 23.5092 20.0884 23.039 20.2502 22.6045L19.8146 21.8465C19.2878 20.9297 18.5071 20.1848 17.5665 19.7017L17.5451 19.6907C17.0697 19.8899 16.5477 20 16 20H4C1.79086 20 0 18.2091 0 16V4Z" fill="#EAEAEA"/>
</svg>
