<svg width="70" height="70" viewBox="0 0 70 70" fill="none" xmlns="http://www.w3.org/2000/svg">
<path d="M8.75 8.82031C8.75 4.40204 12.3317 0.820312 16.75 0.820312H41.5625V33.9062H8.75V8.82031Z" fill="#0C618F"/>
<path d="M8.75 36.0938H41.6992V69.1797H25.1562V52.7051H8.75V36.0938Z" fill="#852A38"/>
<path d="M44.8438 0.683594H52.3867C57.3573 0.683594 61.3867 4.71303 61.3867 9.68359V17.3633H44.8438V0.683594Z" fill="#671539"/>
<path d="M44.8438 19.8242H61.3867V61.1797C61.3867 65.598 57.805 69.1797 53.3867 69.1797H44.8438V19.8242Z" fill="#0C6291"/>
<path d="M13.125 40.4688H37.3242V64.7363H29.668V48.2617L13.125 48.3626V40.4688Z" fill="white"/>
<path d="M12.9883 10.9219C12.9883 7.60817 15.6746 4.92188 18.9883 4.92188H37.3242V29.2578H12.9883V10.9219Z" fill="white"/>
<path d="M49.2188 5.05859H53.0117C55.2209 5.05859 57.0117 6.84945 57.0117 9.05859V12.9883H49.2188V5.05859Z" fill="white"/>
<path d="M49.3555 24.0625H57.1484V60.8047C57.1484 63.0138 55.3576 64.8047 53.1484 64.8047H49.3555V24.0625Z" fill="white"/>
</svg>
