<svg width="1365" height="107" viewBox="0 0 1365 107" fill="none" xmlns="http://www.w3.org/2000/svg">
<path d="M0.84971 53.2698C0.84971 43.0805 3.05412 34.0179 7.46295 26.082C11.8718 18.0481 17.9952 11.8268 25.8331 7.41794C33.769 2.91114 42.7336 0.65774 52.7269 0.65774C64.9737 0.65774 75.4569 3.89088 84.1766 10.3572C92.8962 16.8234 98.7257 25.6411 101.665 36.8101H74.0363C71.9788 32.4993 69.0396 29.2171 65.2186 26.9637C61.4956 24.7103 57.2337 23.5836 52.433 23.5836C44.6931 23.5836 38.4227 26.2779 33.622 31.6665C28.8213 37.0551 26.4209 44.2561 26.4209 53.2698C26.4209 62.2834 28.8213 69.4844 33.622 74.873C38.4227 80.2616 44.6931 82.9559 52.433 82.9559C57.2337 82.9559 61.4956 81.8292 65.2186 79.5758C69.0396 77.3224 71.9788 74.0402 74.0363 69.7294H101.665C98.7257 80.8984 92.8962 89.7161 84.1766 96.1823C75.4569 102.551 64.9737 105.735 52.7269 105.735C42.7336 105.735 33.769 103.53 25.8331 99.1216C17.9952 94.6148 11.8718 88.3934 7.46295 80.4575C3.05412 72.5216 0.84971 63.459 0.84971 53.2698ZM165.845 106.029C156.146 106.029 147.23 103.775 139.099 99.2685C131.065 94.7617 124.647 88.4914 119.847 80.4575C115.144 72.3257 112.793 63.2141 112.793 53.1228C112.793 43.0315 115.144 33.9689 119.847 25.935C124.647 17.9012 131.065 11.6308 139.099 7.12402C147.23 2.61722 156.146 0.363822 165.845 0.363822C175.545 0.363822 184.412 2.61722 192.445 7.12402C200.577 11.6308 206.946 17.9012 211.55 25.935C216.253 33.9689 218.604 43.0315 218.604 53.1228C218.604 63.2141 216.253 72.3257 211.55 80.4575C206.848 88.4914 200.479 94.7617 192.445 99.2685C184.412 103.775 175.545 106.029 165.845 106.029ZM165.845 83.1028C174.075 83.1028 180.64 80.3596 185.538 74.873C190.535 69.3865 193.033 62.1364 193.033 53.1228C193.033 44.0112 190.535 36.7611 185.538 31.3726C180.64 25.886 174.075 23.1428 165.845 23.1428C157.518 23.1428 150.855 25.837 145.859 31.2256C140.96 36.6142 138.511 43.9132 138.511 53.1228C138.511 62.2344 140.96 69.5334 145.859 75.02C150.855 80.4085 157.518 83.1028 165.845 83.1028ZM324.877 105H299.746L257.716 41.3659V105H232.585V1.83343H257.716L299.746 65.7614V1.83343H324.877V105ZM435.384 105H410.254L368.223 41.3659V105H343.093V1.83343H368.223L410.254 65.7614V1.83343H435.384V105ZM478.731 21.9671V42.8355H512.385V62.2344H478.731V84.8664H516.794V105H453.601V1.83343H516.794V21.9671H478.731ZM528.847 53.2698C528.847 43.0805 531.051 34.0179 535.46 26.082C539.869 18.0481 545.992 11.8268 553.83 7.41794C561.766 2.91114 570.731 0.65774 580.724 0.65774C592.971 0.65774 603.454 3.89088 612.174 10.3572C620.894 16.8234 626.723 25.6411 629.662 36.8101H602.034C599.976 32.4993 597.037 29.2171 593.216 26.9637C589.493 24.7103 585.231 23.5836 580.43 23.5836C572.69 23.5836 566.42 26.2779 561.619 31.6665C556.819 37.0551 554.418 44.2561 554.418 53.2698C554.418 62.2834 556.819 69.4844 561.619 74.873C566.42 80.2616 572.69 82.9559 580.43 82.9559C585.231 82.9559 589.493 81.8292 593.216 79.5758C597.037 77.3224 599.976 74.0402 602.034 69.7294H629.662C626.723 80.8984 620.894 89.7161 612.174 96.1823C603.454 102.551 592.971 105.735 580.724 105.735C570.731 105.735 561.766 103.53 553.83 99.1216C545.992 94.6148 539.869 88.3934 535.46 80.4575C531.051 72.5216 528.847 63.459 528.847 53.2698ZM719.267 1.83343V21.9671H691.932V105H666.802V21.9671H639.467V1.83343H719.267ZM904.987 1.83343L878.093 105H847.672L831.212 37.1041L814.165 105H783.744L757.585 1.83343H784.479L799.322 76.9305L817.692 1.83343H845.32L862.956 76.9305L877.946 1.83343H904.987ZM942.72 1.83343V105H917.59V1.83343H942.72ZM1035.15 1.83343V21.9671H1007.81V105H982.682V21.9671H955.347V1.83343H1035.15ZM1137.11 1.83343V105H1111.98V62.5283H1072.89V105H1047.76V1.83343H1072.89V42.2477H1111.98V1.83343H1137.11ZM1211.09 1.83343V63.557C1211.09 69.7294 1212.6 74.4811 1215.64 77.8122C1218.68 81.1433 1223.14 82.8089 1229.01 82.8089C1234.89 82.8089 1239.4 81.1433 1242.54 77.8122C1245.67 74.4811 1247.24 69.7294 1247.24 63.557V1.83343H1272.37V63.4101C1272.37 72.6196 1270.41 80.4085 1266.49 86.7768C1262.57 93.1452 1257.28 97.9459 1250.62 101.179C1244.05 104.412 1236.71 106.029 1228.57 106.029C1220.44 106.029 1213.14 104.461 1206.68 101.326C1200.31 98.0928 1195.26 93.2921 1191.54 86.9238C1187.82 80.4575 1185.96 72.6196 1185.96 63.4101V1.83343H1211.09ZM1327.34 106.029C1319.8 106.029 1313.04 104.804 1307.06 102.355C1301.09 99.9054 1296.29 96.2803 1292.66 91.4796C1289.13 86.6789 1287.27 80.8984 1287.08 74.1382H1313.82C1314.21 77.9592 1315.54 80.8984 1317.79 82.9559C1320.04 84.9153 1322.98 85.8951 1326.61 85.8951C1330.33 85.8951 1333.27 85.0623 1335.43 83.3967C1337.58 81.6332 1338.66 79.2329 1338.66 76.1957C1338.66 73.6483 1337.78 71.5419 1336.01 69.8763C1334.35 68.2108 1332.24 66.8391 1329.69 65.7614C1327.25 64.6837 1323.72 63.459 1319.11 62.0874C1312.45 60.03 1307.01 57.9725 1302.8 55.915C1298.59 53.8576 1294.96 50.8204 1291.93 46.8035C1288.89 42.7865 1287.37 37.5449 1287.37 31.0787C1287.37 21.4772 1290.85 13.9822 1297.8 8.59363C1304.76 3.10709 1313.82 0.363822 1324.99 0.363822C1336.36 0.363822 1345.52 3.10709 1352.47 8.59363C1359.43 13.9822 1363.15 21.5262 1363.64 31.2256H1336.45C1336.26 27.8945 1335.03 25.2982 1332.78 23.4367C1330.53 21.4772 1327.64 20.4975 1324.11 20.4975C1321.07 20.4975 1318.62 21.3302 1316.76 22.9958C1314.9 24.5634 1313.97 26.8658 1313.97 29.903C1313.97 33.2341 1315.54 35.8304 1318.67 37.6919C1321.81 39.5534 1326.71 41.5619 1333.37 43.7173C1340.03 45.9707 1345.42 48.1261 1349.53 50.1836C1353.75 52.241 1357.37 55.2292 1360.41 59.1482C1363.45 63.0671 1364.97 68.1128 1364.97 74.2852C1364.97 80.1636 1363.45 85.5032 1360.41 90.3039C1357.47 95.1046 1353.16 98.9256 1347.48 101.767C1341.79 104.608 1335.08 106.029 1327.34 106.029Z" fill="#2C2C2C"/>
</svg>
