<svg width="1348" height="246" viewBox="0 0 1348 246" fill="none" xmlns="http://www.w3.org/2000/svg">
<path d="M58.6696 49.7491V98.4689H137.239V143.758H58.6696V196.595H147.532V243.599H0V2.74478H147.532V49.7491H58.6696Z" fill="white"/>
<path d="M401.086 243.599H342.416L244.291 95.0379V243.599H185.621V2.74478H244.291L342.416 151.992V2.74478H401.086V243.599Z" fill="white"/>
<path d="M502.284 2.74478V243.599H443.614V2.74478H502.284Z" fill="white"/>
<path d="M704.684 78.9124C700.338 70.9068 694.048 64.8454 685.814 60.7282C677.808 56.3823 668.316 54.2094 657.337 54.2094C638.352 54.2094 623.141 60.4995 611.705 73.0797C600.268 85.4312 594.55 102.014 594.55 122.829C594.55 145.016 600.497 162.399 612.391 174.98C624.514 187.331 641.097 193.507 662.14 193.507C676.55 193.507 688.673 189.847 698.508 182.528C708.573 175.208 715.892 164.687 720.467 150.963H646.015V107.733H773.647V162.285C769.301 176.924 761.867 190.533 751.345 203.114C741.052 215.694 727.9 225.872 711.889 233.649C695.878 241.426 677.808 245.315 657.68 245.315C633.892 245.315 612.62 240.168 593.864 229.875C575.337 219.353 560.812 204.829 550.29 186.302C539.997 167.775 534.851 146.617 534.851 122.829C534.851 99.0407 539.997 77.8831 550.29 59.3558C560.812 40.5998 575.337 26.0754 593.864 15.7825C612.391 5.26082 633.549 0 657.337 0C686.157 0 710.402 6.97631 730.073 20.9289C749.973 34.8816 763.125 54.2094 769.529 78.9124H704.684Z" fill="white"/>
<path d="M1078.91 2.74478V243.599H1020.24V99.1551L966.371 243.599H919.023L864.814 98.812V243.599H806.144V2.74478H875.45L943.04 169.49L1009.94 2.74478H1078.91Z" fill="white"/>
<path d="M1271.03 201.055H1181.14L1166.73 243.599H1105.31L1192.46 2.74478H1260.39L1347.54 243.599H1285.44L1271.03 201.055ZM1255.93 155.766L1226.08 67.5902L1196.58 155.766H1255.93Z" fill="white"/>
</svg>
