<svg width="54" height="54" viewBox="0 0 54 54" fill="none" xmlns="http://www.w3.org/2000/svg">
<rect x="1" y="1" width="52" height="52" rx="26" stroke="white" stroke-width="2"/>
<rect x="19.3" y="19.3" width="15.4" height="15.4" rx="7.7" stroke="white"/>
<path d="M29.4465 22.5641C29.4647 22.5661 29.4826 22.5682 29.5 22.5703V23.3294H29.1156C28.5743 23.3294 28.1364 23.4983 27.8421 23.8324C27.5585 24.1545 27.4726 24.5579 27.4726 24.9049V26.1968V26.6968H27.9726H29.3337L29.1789 27.6875H27.9726H27.4726V28.1875V32.5H26.2808V28.1875V27.6875H25.7808H24.5V26.6968H25.7808H26.2808V26.1968V24.6795C26.2808 23.9189 26.5092 23.3891 26.8552 23.0491C27.2028 22.7075 27.7275 22.5 28.4301 22.5C28.7876 22.5 29.1596 22.5315 29.4465 22.5641Z" fill="white"/>
<path d="M29.4465 22.5641C29.4647 22.5661 29.4826 22.5682 29.5 22.5703V23.3294H29.1156C28.5743 23.3294 28.1364 23.4983 27.8421 23.8324C27.5585 24.1545 27.4726 24.5579 27.4726 24.9049V26.1968V26.6968H27.9726H29.3337L29.1789 27.6875H27.9726H27.4726V28.1875V32.5H26.2808V28.1875V27.6875H25.7808H24.5V26.6968H25.7808H26.2808V26.1968V24.6795C26.2808 23.9189 26.5092 23.3891 26.8552 23.0491C27.2028 22.7075 27.7275 22.5 28.4301 22.5C28.7876 22.5 29.1596 22.5315 29.4465 22.5641Z" fill="white" fill-opacity="0.2"/>
<path d="M29.4465 22.5641C29.4647 22.5661 29.4826 22.5682 29.5 22.5703V23.3294H29.1156C28.5743 23.3294 28.1364 23.4983 27.8421 23.8324C27.5585 24.1545 27.4726 24.5579 27.4726 24.9049V26.1968V26.6968H27.9726H29.3337L29.1789 27.6875H27.9726H27.4726V28.1875V32.5H26.2808V28.1875V27.6875H25.7808H24.5V26.6968H25.7808H26.2808V26.1968V24.6795C26.2808 23.9189 26.5092 23.3891 26.8552 23.0491C27.2028 22.7075 27.7275 22.5 28.4301 22.5C28.7876 22.5 29.1596 22.5315 29.4465 22.5641Z" stroke="white"/>
</svg>
