<svg width="54" height="54" viewBox="0 0 54 54" fill="none" xmlns="http://www.w3.org/2000/svg">
<rect x="1" y="1" width="52" height="52" rx="26" stroke="white" stroke-width="2"/>
<path d="M26.9471 22.8906C24.478 22.8906 22.4321 24.9012 22.4321 27.4056C22.4321 29.91 24.4427 31.9206 26.9471 31.9206C29.4515 31.9206 31.4621 29.8748 31.4621 27.4056C31.4621 24.9365 29.4163 22.8906 26.9471 22.8906ZM26.9471 30.298C25.3598 30.298 24.0547 28.9929 24.0547 27.4056C24.0547 25.8183 25.3598 24.5132 26.9471 24.5132C28.5344 24.5132 29.8395 25.8183 29.8395 27.4056C29.8395 28.9929 28.5344 30.298 26.9471 30.298Z" fill="white"/>
<path d="M31.6384 23.8078C32.2034 23.8078 32.6613 23.3498 32.6613 22.7848C32.6613 22.2199 32.2034 21.7619 31.6384 21.7619C31.0735 21.7619 30.6155 22.2199 30.6155 22.7848C30.6155 23.3498 31.0735 23.8078 31.6384 23.8078Z" fill="white"/>
<path d="M34.2839 20.1393C33.3668 19.1869 32.0617 18.6931 30.5802 18.6931H23.3139C20.2451 18.6931 18.1992 20.739 18.1992 23.8078V31.0388C18.1992 32.5555 18.693 33.8607 19.6807 34.813C20.6331 35.7302 21.9029 36.1887 23.3491 36.1887H30.5449C32.0617 36.1887 33.3315 35.6949 34.2486 34.813C35.201 33.8959 35.6948 32.5908 35.6948 31.0741V23.8078C35.6948 22.3263 35.201 21.0564 34.2839 20.1393ZM34.1428 31.0741C34.1428 32.1675 33.7548 33.0494 33.1199 33.649C32.4849 34.2487 31.6031 34.5661 30.5449 34.5661H23.3491C22.2909 34.5661 21.4091 34.2487 20.7742 33.649C20.1393 33.0141 19.8218 32.1323 19.8218 31.0388V23.8078C19.8218 22.7496 20.1393 21.8677 20.7742 21.2328C21.3738 20.6332 22.2909 20.3157 23.3491 20.3157H30.6154C31.6736 20.3157 32.5555 20.6332 33.1904 21.2681C33.79 21.903 34.1428 22.7848 34.1428 23.8078V31.0741Z" fill="white"/>
</svg>
