<svg width="54" height="54" viewBox="0 0 54 54" fill="none" xmlns="http://www.w3.org/2000/svg">
<rect x="1" y="1" width="52" height="52" rx="26" stroke="white" stroke-width="2"/>
<g clip-path="url(#clip0_40_69)">
<path d="M21.1775 25.5536H24.1779V35H21.1775V25.5536ZM22.6978 21C21.6709 21 21 21.7053 21 22.6311C21 23.5378 21.6513 24.2637 22.6585 24.2637H22.6777C23.7242 24.2637 24.3759 23.5378 24.3759 22.6311C24.3563 21.7053 23.7242 21 22.6978 21ZM31.5446 25.3317C29.952 25.3317 29.2385 26.2482 28.8405 26.8909V25.5536H25.8392C25.8789 26.4398 25.8392 35 25.8392 35H28.8405V29.7245C28.8405 29.4419 28.8601 29.1604 28.9391 28.958C29.1564 28.3939 29.6502 27.8098 30.4785 27.8098C31.5652 27.8098 31.9992 28.6765 31.9992 29.9458V35H35V29.5832C35 26.6817 33.5199 25.3317 31.5446 25.3317Z" fill="white"/>
</g>
<rect x="17.25" y="17.25" width="19.5" height="19.5" stroke="white" stroke-width="1.5"/>
<defs>
<clipPath id="clip0_40_69">
<rect x="18" y="18" width="18" height="18" fill="white"/>
</clipPath>
</defs>
</svg>
