<svg width="344" height="344" viewBox="0 0 344 344" fill="none" xmlns="http://www.w3.org/2000/svg">
<mask id="path-1-inside-1_180_406" fill="white">
<path d="M0 0H344V344H0V0Z"/>
</mask>
<path d="M344.5 344V342H343.5V344H344.5ZM344.5 338V334H343.5V338H344.5ZM344.5 330V326H343.5V330H344.5ZM344.5 322V318H343.5V322H344.5ZM344.5 314V310H343.5V314H344.5ZM344.5 306V302H343.5V306H344.5ZM344.5 298V294H343.5V298H344.5ZM344.5 290V286H343.5V290H344.5ZM344.5 282V278H343.5V282H344.5ZM344.5 274V270H343.5V274H344.5ZM344.5 266V262H343.5V266H344.5ZM344.5 258V254H343.5V258H344.5ZM344.5 250V246H343.5V250H344.5ZM344.5 242V238H343.5V242H344.5ZM344.5 234V230H343.5V234H344.5ZM344.5 226V222H343.5V226H344.5ZM344.5 218V214H343.5V218H344.5ZM344.5 210V206H343.5V210H344.5ZM344.5 202V198H343.5V202H344.5ZM344.5 194V190H343.5V194H344.5ZM344.5 186V182H343.5V186H344.5ZM344.5 178V174H343.5V178H344.5ZM344.5 170V166H343.5V170H344.5ZM344.5 162V158H343.5V162H344.5ZM344.5 154V150H343.5V154H344.5ZM344.5 146V142H343.5V146H344.5ZM344.5 138V134H343.5V138H344.5ZM344.5 130V126H343.5V130H344.5ZM344.5 122V118H343.5V122H344.5ZM344.5 114V110H343.5V114H344.5ZM344.5 106V102H343.5V106H344.5ZM344.5 98V94H343.5V98H344.5ZM344.5 90V86H343.5V90H344.5ZM344.5 82V78H343.5V82H344.5ZM344.5 74V70H343.5V74H344.5ZM344.5 66V62H343.5V66H344.5ZM344.5 58V54H343.5V58H344.5ZM344.5 50V46H343.5V50H344.5ZM344.5 42V38H343.5V42H344.5ZM344.5 34V30H343.5V34H344.5ZM344.5 26V22H343.5V26H344.5ZM344.5 18V14H343.5V18H344.5ZM344.5 10V6H343.5V10H344.5ZM344.5 2V0H343.5V2H344.5ZM345 344V342H343V344H345ZM345 338V334H343V338H345ZM345 330V326H343V330H345ZM345 322V318H343V322H345ZM345 314V310H343V314H345ZM345 306V302H343V306H345ZM345 298V294H343V298H345ZM345 290V286H343V290H345ZM345 282V278H343V282H345ZM345 274V270H343V274H345ZM345 266V262H343V266H345ZM345 258V254H343V258H345ZM345 250V246H343V250H345ZM345 242V238H343V242H345ZM345 234V230H343V234H345ZM345 226V222H343V226H345ZM345 218V214H343V218H345ZM345 210V206H343V210H345ZM345 202V198H343V202H345ZM345 194V190H343V194H345ZM345 186V182H343V186H345ZM345 178V174H343V178H345ZM345 170V166H343V170H345ZM345 162V158H343V162H345ZM345 154V150H343V154H345ZM345 146V142H343V146H345ZM345 138V134H343V138H345ZM345 130V126H343V130H345ZM345 122V118H343V122H345ZM345 114V110H343V114H345ZM345 106V102H343V106H345ZM345 98V94H343V98H345ZM345 90V86H343V90H345ZM345 82V78H343V82H345ZM345 74V70H343V74H345ZM345 66V62H343V66H345ZM345 58V54H343V58H345ZM345 50V46H343V50H345ZM345 42V38H343V42H345ZM345 34V30H343V34H345ZM345 26V22H343V26H345ZM345 18V14H343V18H345ZM345 10V6H343V10H345ZM345 2V0H343V2H345Z" fill="#2C2C2C" fill-opacity="0.1" mask="url(#path-1-inside-1_180_406)"/>
<g clip-path="url(#clip0_180_406)">
<path d="M8 7H86C133.496 7 172 45.5035 172 93V172H8V7Z" fill="url(#paint0_linear_180_406)"/>
<path d="M336 337H258C210.504 337 172 298.496 172 251V172H336V337Z" fill="url(#paint1_linear_180_406)"/>
<path d="M336 90C336 135.287 299.287 172 254 172C208.713 172 172 135.287 172 90V7H336V90Z" fill="url(#paint2_linear_180_406)"/>
<path d="M172 254C172 208.713 135.287 172 90 172C44.7127 172 8 208.713 8 254V337H172V254Z" fill="url(#paint3_linear_180_406)"/>
</g>
<defs>
<linearGradient id="paint0_linear_180_406" x1="8" y1="7" x2="178.565" y2="164.909" gradientUnits="userSpaceOnUse">
<stop offset="0.085" stop-color="#7E1946"/>
<stop offset="1" stop-color="white"/>
</linearGradient>
<linearGradient id="paint1_linear_180_406" x1="336" y1="337" x2="165.435" y2="179.091" gradientUnits="userSpaceOnUse">
<stop offset="0.085" stop-color="#7E1946"/>
<stop offset="1" stop-color="white"/>
</linearGradient>
<linearGradient id="paint2_linear_180_406" x1="336" y1="172" x2="165.435" y2="14.0906" gradientUnits="userSpaceOnUse">
<stop offset="0.085" stop-color="#7E1946"/>
<stop offset="1" stop-color="white"/>
</linearGradient>
<linearGradient id="paint3_linear_180_406" x1="172" y1="172" x2="1.43547" y2="329.909" gradientUnits="userSpaceOnUse">
<stop offset="0.085" stop-color="#7E1946"/>
<stop offset="1" stop-color="white"/>
</linearGradient>
<clipPath id="clip0_180_406">
<rect width="328" height="330" fill="white" transform="translate(8 7)"/>
</clipPath>
</defs>
</svg>
