<svg width="70" height="70" viewBox="0 0 70 70" fill="none" xmlns="http://www.w3.org/2000/svg">
<path fill-rule="evenodd" clip-rule="evenodd" d="M41.6992 36.0938H8.75V52.7051H25.1562V69.1797H41.6992V36.0938ZM37.3242 40.4688H13.125V48.3626L29.668 48.2617V64.7363H37.3242V40.4688Z" fill="white"/>
<path fill-rule="evenodd" clip-rule="evenodd" d="M16.75 0.820312C12.3317 0.820312 8.75 4.40204 8.75 8.82031V33.9062H41.5625V0.820312H16.75ZM18.9883 4.92188C15.6746 4.92188 12.9883 7.60817 12.9883 10.9219V29.2578H37.3242V4.92188H18.9883Z" fill="white"/>
<path fill-rule="evenodd" clip-rule="evenodd" d="M52.3867 0.683594H44.8438V17.3633H61.3867V9.68359C61.3867 4.71303 57.3573 0.683594 52.3867 0.683594ZM53.0117 5.05859H49.2188V12.9883H57.0117V9.05859C57.0117 6.84945 55.2209 5.05859 53.0117 5.05859Z" fill="white"/>
<path fill-rule="evenodd" clip-rule="evenodd" d="M61.543 20H45V69.3555H53.543C57.9612 69.3555 61.543 65.7737 61.543 61.3555V20ZM57.3047 24.2383H49.5117V64.9805C53.8157 64.9805 57.3047 61.4914 57.3047 57.1875V24.2383Z" fill="white"/>
</svg>
