<svg width="39" height="39" viewBox="0 0 39 39" fill="none" xmlns="http://www.w3.org/2000/svg">
<path fill-rule="evenodd" clip-rule="evenodd" d="M2 0C0.89543 0 0 0.895431 0 2V9.25C0 10.3546 0.89543 11.25 2 11.25H15.25C16.3546 11.25 17.25 10.3546 17.25 9.25V2C17.25 0.895431 16.3546 0 15.25 0H2ZM3.24998 2.25001C2.69769 2.25001 2.24998 2.69773 2.24998 3.25001V8.00001C2.24998 8.5523 2.69769 9.00002 3.24998 9.00002H14C14.5523 9.00002 15 8.5523 15 8.00002V3.25001C15 2.69773 14.5523 2.25001 14 2.25001H3.24998Z" fill="white"/>
<path fill-rule="evenodd" clip-rule="evenodd" d="M23 0C21.8954 0 21 0.895431 21 2V22C21 23.1046 21.8954 24 23 24H36.25C37.3546 24 38.25 23.1046 38.25 22V2C38.25 0.895431 37.3546 0 36.25 0H23ZM24.25 2.25001C23.6977 2.25001 23.25 2.69773 23.25 3.25001V20.75C23.25 21.3023 23.6977 21.75 24.25 21.75H35C35.5523 21.75 36 21.3023 36 20.75V3.25001C36 2.69773 35.5523 2.25001 35 2.25001H24.25Z" fill="white"/>
<path fill-rule="evenodd" clip-rule="evenodd" d="M2 15C0.895431 15 0 15.8954 0 17V37C0 38.1046 0.89543 39 2 39H15.25C16.3546 39 17.25 38.1046 17.25 37V17C17.25 15.8954 16.3546 15 15.25 15H2ZM3.24998 17.25C2.69769 17.25 2.24998 17.6977 2.24998 18.25V35.75C2.24998 36.3023 2.69769 36.75 3.24998 36.75H14C14.5523 36.75 15 36.3023 15 35.75V18.25C15 17.6977 14.5523 17.25 14 17.25H3.24998Z" fill="white"/>
<path fill-rule="evenodd" clip-rule="evenodd" d="M23 27.75C21.8954 27.75 21 28.6454 21 29.75V37C21 38.1046 21.8954 39 23 39H36.25C37.3546 39 38.25 38.1046 38.25 37V29.75C38.25 28.6454 37.3546 27.75 36.25 27.75H23ZM36 30H23.25V36.75H36V30Z" fill="white"/>
</svg>
